<svg viewBox="0 0 60 60" xmlns="http://www.w3.org/2000/svg"><path d="m34 12v-4c0-2.209-1.791-4-4-4s-4 1.791-4 4v4.072" style="fill:none;stroke:#dc9628;stroke-width:2;stroke-linecap:round;stroke-linejoin:round;stroke-miterlimit:10"/><path d="m16.491 50.638c10.701 1.847 16.658 1.847 27.36 0l9.49-1.638c-4.685-4.657-7.317-10.415-7.317-17v-9c.038-6.047-3.957-10.478-7.946-12.301-4.999-2.285-10.815-2.294-15.806.008-3.953 1.823-8.234 6.251-8.272 12.293v9c0 6.585-2.315 12.343-7 17z" fill="#eeaf4b"/><path d="m19 25.991c-.002 0-.004 0-.006 0-.552-.004-.997-.454-.994-1.006.03-4.682 3.752-7.643 5.948-8.654 3.849-1.775 8.594-1.772 12.469-.002.502.229.723.822.494 1.325-.229.502-.822.724-1.326.493-3.354-1.533-7.469-1.537-10.799 0-1.767.814-4.762 3.173-4.785 6.85-.004.55-.452.994-1.001.994z" fill="#fbd490"/><path d="m21.906 51.46c1.444 3.268 4.602 5.54 8.277 5.54 3.676 0 6.834-2.273 8.278-5.543-5.928.752-10.631.753-16.555.003z" fill="#dc9628"/><g fill="#f2ecbf"><path d="m4.095 39.967c-.256 0-.512-.098-.707-.293-2.185-2.185-3.388-5.094-3.388-8.191 0-3.098 1.203-6.006 3.388-8.19.391-.391 1.023-.391 1.414 0s.391 1.023 0 1.414c-1.807 1.807-2.802 4.213-2.802 6.776s.995 4.969 2.802 6.776c.391.391.391 1.023 0 1.414-.196.196-.451.294-.707.294z"/><path d="m8.305 37.69c-.256 0-.512-.098-.707-.293-3.337-3.337-3.337-8.768 0-12.104.391-.391 1.023-.391 1.414 0s.391 1.023 0 1.414c-2.558 2.558-2.558 6.719 0 9.276.391.391.391 1.023 0 1.414-.195.196-.451.293-.707.293z"/><path d="m55.905 39.967c-.256 0-.512-.098-.707-.293-.391-.391-.391-1.023 0-1.414 1.807-1.808 2.802-4.214 2.802-6.777s-.995-4.97-2.802-6.776c-.391-.391-.391-1.023 0-1.414s1.023-.391 1.414 0c2.185 2.185 3.388 5.093 3.388 8.19s-1.203 6.006-3.388 8.19c-.195.196-.451.294-.707.294z"/><path d="m51.695 37.69c-.256 0-.512-.098-.707-.293-.391-.391-.391-1.023 0-1.414 2.558-2.558 2.558-6.719 0-9.276-.391-.391-.391-1.023 0-1.414s1.023-.391 1.414 0c3.337 3.337 3.337 8.768 0 12.104-.195.196-.451.293-.707.293z"/></g></svg>